<svg width="31" height="29" viewBox="0 0 31 29" fill="none" xmlns="http://www.w3.org/2000/svg">
<path d="M27.2411 0.0625H3.76393C2.91513 0.0633531 2.10134 0.389575 1.50115 0.969581C0.900959 1.54959 0.563383 2.336 0.5625 3.15625V25.8438C0.563383 26.664 0.900959 27.4504 1.50115 28.0304C2.10134 28.6104 2.91513 28.9366 3.76393 28.9375H27.2411C28.0899 28.9366 28.9037 28.6104 29.5038 28.0304C30.104 27.4504 30.4416 26.664 30.4425 25.8438V3.15625C30.4416 2.336 30.104 1.54959 29.5038 0.969581C28.9037 0.389575 28.0899 0.0633531 27.2411 0.0625ZM26.1266 10.6973L22.6277 14.676C22.3257 15.0233 21.8987 15.2471 21.4327 15.3023C20.9668 15.3576 20.4965 15.2402 20.1166 14.9737C19.2495 14.375 17.4974 13.3695 15.5025 13.3695C13.5076 13.3695 11.7555 14.375 10.8884 14.9737C10.5084 15.24 10.0382 15.3573 9.57228 15.3021C9.10639 15.2468 8.67943 15.0231 8.37732 14.676L4.87843 10.6973C4.54604 10.318 4.36597 9.83573 4.37111 9.33871C4.37626 8.84169 4.56627 8.36305 4.90644 7.99023C6.169 6.61674 9.72859 3.42244 15.5025 3.42244C21.2764 3.42244 24.836 6.61867 26.0986 7.99023C26.4387 8.36305 26.6287 8.84169 26.6339 9.33871C26.639 9.83573 26.459 10.318 26.1266 10.6973Z" fill="#959595"/>
</svg>
