<svg width="30" height="30" viewBox="0 0 30 30" fill="none" xmlns="http://www.w3.org/2000/svg">
<path d="M11.8117 14.2292L5.625 6.32834L2.52333 14.2292H11.8117Z" fill="#F4900C"/>
<path d="M14.9483 4.61166L9.47916 14.9358H20.4167L14.9483 4.61166Z" fill="#F4900C"/>
<path d="M18.1883 14.2292L24.375 6.32834L27.4767 14.2292H18.1883Z" fill="#F4900C"/>
<path d="M23.8908 12.6583L19.9058 2.93583L15.0058 12.6592L15 12.6617L14.9942 12.6583L10.0942 2.935L6.10917 12.6583C3.4975 9.0275 1.06667 6.70166 1.06667 6.70166C1.06667 6.70166 2.5 17.2917 2.5 27.5H27.5C27.5 17.2917 28.9333 6.70166 28.9333 6.70166C28.9333 6.70166 26.5025 9.0275 23.8908 12.6583Z" fill="#FFCC4D"/>
<path d="M14.9642 21.4067C16.6615 21.4067 18.0375 20.0307 18.0375 18.3333C18.0375 16.636 16.6615 15.26 14.9642 15.26C13.2668 15.26 11.8908 16.636 11.8908 18.3333C11.8908 20.0307 13.2668 21.4067 14.9642 21.4067Z" fill="#5C913B"/>
<path d="M22.0525 20.3433C23.1626 20.3433 24.0625 19.4434 24.0625 18.3333C24.0625 17.2232 23.1626 16.3233 22.0525 16.3233C20.9424 16.3233 20.0425 17.2232 20.0425 18.3333C20.0425 19.4434 20.9424 20.3433 22.0525 20.3433Z" fill="#981CEB"/>
<path d="M27.3767 19.9883C28.2907 19.9883 29.0317 19.2474 29.0317 18.3333C29.0317 17.4193 28.2907 16.6783 27.3767 16.6783C26.4626 16.6783 25.7217 17.4193 25.7217 18.3333C25.7217 19.2474 26.4626 19.9883 27.3767 19.9883Z" fill="#DD2E44"/>
<path d="M7.875 20.3433C8.98509 20.3433 9.885 19.4434 9.885 18.3333C9.885 17.2232 8.98509 16.3233 7.875 16.3233C6.76491 16.3233 5.865 17.2232 5.865 18.3333C5.865 19.4434 6.76491 20.3433 7.875 20.3433Z" fill="#981CEB"/>
<path d="M2.55084 19.9883C3.46487 19.9883 4.20584 19.2474 4.20584 18.3333C4.20584 17.4193 3.46487 16.6783 2.55084 16.6783C1.6368 16.6783 0.895836 17.4193 0.895836 18.3333C0.895836 19.2474 1.6368 19.9883 2.55084 19.9883Z" fill="#DD2E44"/>
<path d="M27.5 28.3333H2.5C2.27898 28.3333 2.06702 28.2455 1.91074 28.0892C1.75446 27.933 1.66666 27.721 1.66666 27.5C1.66666 27.279 1.75446 27.067 1.91074 26.9107C2.06702 26.7545 2.27898 26.6667 2.5 26.6667H27.5C27.721 26.6667 27.933 26.7545 28.0893 26.9107C28.2455 27.067 28.3333 27.279 28.3333 27.5C28.3333 27.721 28.2455 27.933 28.0893 28.0892C27.933 28.2455 27.721 28.3333 27.5 28.3333ZM27.5 25.4283H2.5C2.27898 25.4283 2.06702 25.3405 1.91074 25.1842C1.75446 25.028 1.66666 24.816 1.66666 24.595C1.66666 24.374 1.75446 24.162 1.91074 24.0057C2.06702 23.8495 2.27898 23.7617 2.5 23.7617H27.5C27.721 23.7617 27.933 23.8495 28.0893 24.0057C28.2455 24.162 28.3333 24.374 28.3333 24.595C28.3333 24.816 28.2455 25.028 28.0893 25.1842C27.933 25.3405 27.721 25.4283 27.5 25.4283Z" fill="#FFAC33"/>
<path d="M1.20583 7.87417C1.85339 7.87417 2.37833 7.34923 2.37833 6.70167C2.37833 6.05412 1.85339 5.52917 1.20583 5.52917C0.558279 5.52917 0.0333328 6.05412 0.0333328 6.70167C0.0333328 7.34923 0.558279 7.87417 1.20583 7.87417Z" fill="#FFCC4D"/>
<path d="M5.625 7.32166C6.1736 7.32166 6.61833 6.87693 6.61833 6.32832C6.61833 5.77972 6.1736 5.33499 5.625 5.33499C5.0764 5.33499 4.63167 5.77972 4.63167 6.32832C4.63167 6.87693 5.0764 7.32166 5.625 7.32166Z" fill="#F4900C"/>
<path d="M10.0942 4.42249C10.9152 4.42249 11.5808 3.75689 11.5808 2.93582C11.5808 2.11476 10.9152 1.44916 10.0942 1.44916C9.2731 1.44916 8.6075 2.11476 8.6075 2.93582C8.6075 3.75689 9.2731 4.42249 10.0942 4.42249Z" fill="#FFCC4D"/>
<path d="M28.7942 7.87417C29.4417 7.87417 29.9667 7.34923 29.9667 6.70167C29.9667 6.05412 29.4417 5.52917 28.7942 5.52917C28.1466 5.52917 27.6217 6.05412 27.6217 6.70167C27.6217 7.34923 28.1466 7.87417 28.7942 7.87417Z" fill="#FFCC4D"/>
<path d="M24.375 7.32166C24.9236 7.32166 25.3683 6.87693 25.3683 6.32832C25.3683 5.77972 24.9236 5.33499 24.375 5.33499C23.8264 5.33499 23.3817 5.77972 23.3817 6.32832C23.3817 6.87693 23.8264 7.32166 24.375 7.32166Z" fill="#F4900C"/>
<path d="M19.9058 4.42249C20.7269 4.42249 21.3925 3.75689 21.3925 2.93582C21.3925 2.11476 20.7269 1.44916 19.9058 1.44916C19.0848 1.44916 18.4192 2.11476 18.4192 2.93582C18.4192 3.75689 19.0848 4.42249 19.9058 4.42249Z" fill="#FFCC4D"/>
<path d="M14.9483 6.09833C15.7694 6.09833 16.435 5.43273 16.435 4.61167C16.435 3.7906 15.7694 3.125 14.9483 3.125C14.1273 3.125 13.4617 3.7906 13.4617 4.61167C13.4617 5.43273 14.1273 6.09833 14.9483 6.09833Z" fill="#F4900C"/>
</svg>
