<svg width="31" height="27" viewBox="0 0 31 27" fill="none" xmlns="http://www.w3.org/2000/svg">
<path d="M25.3348 9.13067L29.9844 13.3801C30.5462 13.9008 30.3858 14.3023 29.624 14.3023H26.1364V25.4049C26.1364 26.1668 25.4951 26.8479 24.7332 26.8479H18.6804V19.0712C18.6804 18.3093 17.9993 17.6282 17.2374 17.6282H13.4292C12.6673 17.6282 11.9863 18.3093 11.9863 19.0712V26.8479H5.93344C5.17155 26.8479 4.49046 26.1668 4.49046 25.4049V14.3023H1.04271C0.280813 14.3023 0.120482 13.9008 0.682282 13.3801L14.2707 1.03459C14.8325 0.513837 15.7944 0.513837 16.3947 1.03459L19.4808 3.79998V1.59511C19.4808 0.833216 20.1619 0.15213 20.9238 0.15213H23.9303C24.6922 0.15213 25.3335 0.833216 25.3335 1.59511L25.3348 9.13067Z" fill="#959595"/>
</svg>
