<svg width="26" height="26" viewBox="0 0 26 26" fill="none" xmlns="http://www.w3.org/2000/svg">
<g clip-path="url(#clip0_2_196)">
<path d="M20.0652 25.25H5.93477C3.68711 25.25 1.85869 23.4216 1.85869 21.1739V4.32607C1.85869 2.07842 3.68711 0.25 5.93477 0.25H20.0652C22.3128 0.25 24.1413 2.07842 24.1413 4.32607V21.1739C24.1413 23.4216 22.3129 25.25 20.0652 25.25Z" fill="#F26C9A"/>
<path d="M20.0652 0.25H13V25.25H20.0652C22.3129 25.25 24.1413 23.4216 24.1413 21.1739V4.32607C24.1413 2.07842 22.3129 0.25 20.0652 0.25Z" fill="#D95782"/>
<path d="M19.5217 10.8478H6.47827C6.02822 10.8478 5.66304 10.4826 5.66304 10.0326C5.66304 5.98678 8.9542 2.69562 13 2.69562C17.0458 2.69562 20.337 5.98678 20.337 10.0326C20.337 10.4827 19.9718 10.8478 19.5217 10.8478Z" fill="#D7EBFF"/>
<path d="M13 2.69565V10.8478H19.5217C19.9718 10.8478 20.337 10.4827 20.337 10.0326C20.337 5.98681 17.0458 2.69565 13 2.69565Z" fill="#BDDEFF"/>
<path d="M18.7609 21.9891H17.1305C15.7819 21.9891 14.6848 20.892 14.6848 19.5435V15.7391C14.6848 14.3905 15.7819 13.2935 17.1305 13.2935H18.7609C20.1095 13.2935 21.2065 14.3905 21.2065 15.7391V19.5435C21.2065 20.892 20.1095 21.9891 18.7609 21.9891Z" fill="#D7EBFF"/>
<path d="M18.7609 13.2935H17.9457V21.9891H18.7609C20.1095 21.9891 21.2065 20.892 21.2065 19.5435V15.7391C21.2065 14.3905 20.1095 13.2935 18.7609 13.2935Z" fill="#BDDEFF"/>
<path d="M8.92392 21.9891H7.29346C5.94487 21.9891 4.8478 20.892 4.8478 19.5435V15.7391C4.8478 14.3905 5.94487 13.2935 7.29346 13.2935H8.92388C10.2725 13.2935 11.3695 14.3905 11.3695 15.7391V19.5435C11.3696 20.892 10.2725 21.9891 8.92392 21.9891Z" fill="#D7EBFF"/>
<path d="M8.92393 13.2935H8.10869V21.9891H8.92393C10.2725 21.9891 11.3696 20.892 11.3696 19.5435V15.7391C11.3696 14.3905 10.2725 13.2935 8.92393 13.2935Z" fill="#BDDEFF"/>
<path d="M7.35132 9.21739H18.6486C18.2517 6.45543 15.8697 4.32608 13 4.32608C10.1303 4.32608 7.74829 6.45543 7.35132 9.21739Z" fill="#36D9D9"/>
<path d="M18.6487 9.21739C18.2517 6.45543 15.8697 4.32608 13 4.32608V9.21739H18.6487Z" fill="#43BFBF"/>
<path d="M11.7964 9.21737H13.6601L12.0988 6.40712C11.8977 6.00482 11.4083 5.84237 11.005 6.04252C10.6021 6.24423 10.4392 6.73353 10.6404 7.13636L11.7964 9.21737Z" fill="#736056"/>
</g>
<defs>
<clipPath id="clip0_2_196">
<rect width="25" height="25" fill="white" transform="translate(0.5 0.25)"/>
</clipPath>
</defs>
</svg>
