<svg width="29" height="30" viewBox="0 0 29 30" fill="none" xmlns="http://www.w3.org/2000/svg">
<path d="M11.06 7.23088C12.5906 4.48524 13.3558 3.11242 14.5 3.11242C15.6441 3.11242 16.4094 4.48523 17.9398 7.23087L18.3358 7.9412C18.7708 8.72142 18.9882 9.11154 19.3274 9.36894C19.6664 9.62634 20.0886 9.72188 20.9332 9.91298L21.7022 10.087C24.6742 10.7594 26.1604 11.0957 26.5139 12.2326C26.8675 13.3695 25.8544 14.5542 23.8282 16.9235L23.304 17.5365C22.7282 18.2098 22.4403 18.5465 22.3107 18.963C22.1813 19.3795 22.2248 19.8286 22.3118 20.727L22.3911 21.5448C22.6974 24.7061 22.8506 26.2867 21.925 26.9893C20.9993 27.692 19.6079 27.0513 16.8252 25.7701L16.1052 25.4386C15.3145 25.0745 14.9191 24.8924 14.5 24.8924C14.0808 24.8924 13.6854 25.0745 12.8947 25.4386L12.1748 25.7701C9.39195 27.0513 8.00055 27.692 7.07493 26.9893C6.14932 26.2867 6.30248 24.7061 6.60882 21.5448L6.68806 20.727C6.77512 19.8286 6.81865 19.3795 6.68913 18.963C6.55962 18.5465 6.27173 18.2098 5.69595 17.5365L5.17175 16.9235C3.14556 14.5542 2.13245 13.3695 2.48601 12.2326C2.83957 11.0957 4.32563 10.7594 7.29774 10.087L8.06666 9.91298C8.91124 9.72188 9.33353 9.62634 9.6726 9.36894C10.0117 9.11154 10.2291 8.72143 10.6641 7.9412L11.06 7.23088Z" stroke="#1C274C" stroke-width="1.8125"/>
</svg>
