<svg width="30" height="28" viewBox="0 0 30 28" fill="none" xmlns="http://www.w3.org/2000/svg">
<g clip-path="url(#clip0_2_166)">
<path d="M6.47736 13.75H16.0228C16.7759 13.75 17.3864 13.1904 17.3864 12.5V2.50003C17.3864 1.80967 16.7759 1.25003 16.0228 1.25003H6.47736V13.75Z" fill="url(#paint0_linear_2_166)"/>
<path d="M14.6594 13.7501C14.6594 14.4404 15.2699 15.0001 16.0231 15.0001H24.2048C24.958 15.0001 25.5685 14.4404 25.5685 13.7501V3.7501C25.5685 3.05973 24.958 2.50009 24.2048 2.50009H14.6594V13.7501Z" fill="url(#paint1_linear_2_166)"/>
<path d="M6.47727 1.25C6.47727 0.559644 5.86675 0 5.11364 0C4.36052 0 3.75 0.559644 3.75 1.25V26.25C3.75 26.9404 4.36052 27.5 5.11364 27.5C5.86675 27.5 6.47727 26.9404 6.47727 26.25V1.25Z" fill="url(#paint2_linear_2_166)"/>
</g>
<defs>
<linearGradient id="paint0_linear_2_166" x1="6.47736" y1="6.3404" x2="17.7572" y2="10.2781" gradientUnits="userSpaceOnUse">
<stop stop-color="#71FF6F"/>
<stop offset="1" stop-color="#41BF3F"/>
</linearGradient>
<linearGradient id="paint1_linear_2_166" x1="14.6594" y1="2.50009" x2="27.0445" y2="13.3088" gradientUnits="userSpaceOnUse">
<stop stop-color="#71FF6F"/>
<stop offset="1" stop-color="#41BF3F"/>
</linearGradient>
<linearGradient id="paint2_linear_2_166" x1="3.75" y1="7.43412" x2="6.47727" y2="7.43412" gradientUnits="userSpaceOnUse">
<stop stop-color="#E4E4E4"/>
<stop offset="0.999997" stop-color="#C2C2C2"/>
</linearGradient>
<clipPath id="clip0_2_166">
<rect width="30" height="27.5" fill="white"/>
</clipPath>
</defs>
</svg>
